<svg width="146" height="33" viewBox="0 0 146 33" fill="none" xmlns="http://www.w3.org/2000/svg">
<path d="M0.00234222 17.7175C0.00234222 15.8894 0.471092 14.2722 1.40859 12.866C2.34609 11.4597 3.5414 10.241 4.99453 9.20972C6.44765 8.13159 8.11172 7.24097 9.98672 6.53784C11.8617 5.83472 13.7367 5.27222 15.6117 4.85034C17.4867 4.42847 19.2914 4.14722 21.0258 4.00659C22.807 3.81909 24.3305 3.72534 25.5961 3.72534C26.1117 3.72534 26.5805 3.91284 27.0023 4.28784C27.4242 4.66284 27.6352 5.13159 27.6352 5.69409C27.6352 6.20972 27.5648 6.67847 27.4242 7.10034C27.3305 7.47534 27.1195 7.94409 26.7914 8.50659C25.807 8.36597 24.5648 8.29565 23.0648 8.29565C21.5648 8.29565 19.9945 8.3894 18.3539 8.5769C16.7602 8.7644 15.1664 9.09253 13.5727 9.56128C11.9789 9.98315 10.5258 10.5925 9.21328 11.3894C7.90078 12.1394 6.84609 13.0535 6.04922 14.1316C5.25234 15.2097 4.8539 16.5222 4.8539 18.0691C4.8539 19.4753 5.08828 20.6941 5.55703 21.7253C6.02578 22.7097 6.65859 23.5769 7.45547 24.3269C8.25234 25.03 9.1664 25.616 10.1977 26.0847C11.2289 26.5066 12.307 26.8582 13.432 27.1394C14.6039 27.3738 15.7758 27.5378 16.9477 27.6316C18.1195 27.7253 19.2445 27.7722 20.3227 27.7722C21.5414 27.7722 22.7367 27.7488 23.9086 27.7019C25.1273 27.655 26.2992 27.5613 27.4242 27.4207C28.5492 27.28 29.6977 27.0925 30.8695 26.8582C32.0414 26.5769 33.1898 26.155 34.3148 25.5925C34.8305 25.7332 35.0883 25.991 35.0883 26.366C35.1352 26.6941 35.1586 27.0457 35.1586 27.4207C35.1586 28.3113 34.8539 29.0378 34.2445 29.6003C33.682 30.1628 32.9086 30.6082 31.9242 30.9363C30.9867 31.2644 29.932 31.4988 28.7602 31.6394C27.5883 31.78 26.4398 31.8503 25.3148 31.8503C24.1898 31.8972 23.1352 31.8972 22.1508 31.8503C21.2133 31.8503 20.4867 31.8503 19.9711 31.8503C18.5648 31.8503 17.0648 31.7566 15.4711 31.5691C13.9242 31.3347 12.4242 31.0066 10.9711 30.5847C9.51797 30.1628 8.11172 29.6003 6.75234 28.8972C5.43984 28.1472 4.2914 27.2566 3.30703 26.2253C2.32265 25.1941 1.52578 23.9753 0.916405 22.5691C0.30703 21.1628 0.00234222 19.5457 0.00234222 17.7175ZM45.5086 8.08472C45.5086 7.52222 45.5086 6.86597 45.5086 6.11597C45.5086 5.36597 45.5789 4.66284 45.7195 4.00659C45.8602 3.30347 46.0945 2.74097 46.4227 2.31909C46.7977 1.85034 47.3836 1.61597 48.1805 1.61597C48.5555 1.61597 48.8602 1.94409 49.0945 2.60034C49.3758 3.25659 49.5867 4.12378 49.7273 5.2019C49.868 6.23315 49.9852 7.38159 50.0789 8.64722C50.1727 9.91284 50.2195 11.1316 50.2195 12.3035C50.2664 13.4753 50.2898 14.53 50.2898 15.4675C50.3367 16.405 50.3602 17.0378 50.3602 17.366C50.4539 18.5847 50.618 19.8269 50.8523 21.0925C51.1336 22.3113 51.3914 23.5535 51.6258 24.8191C51.907 26.0847 52.1414 27.3269 52.3289 28.5457C52.5633 29.7644 52.6805 30.9363 52.6805 32.0613C51.0398 32.0613 49.7273 31.7097 48.743 31.0066C47.7586 30.3035 47.0086 29.366 46.493 28.1941C46.0242 27.0222 45.7195 25.6863 45.5789 24.1863C45.4383 22.6394 45.3914 21.0925 45.4383 19.5457C45.4852 17.9519 45.532 16.3816 45.5789 14.8347C45.6727 13.241 45.6727 11.8113 45.5789 10.5457V10.1941C45.5789 9.95972 45.5555 9.72534 45.5086 9.49097C45.5086 9.25659 45.5086 9.02222 45.5086 8.78784V8.08472ZM63.0305 18.0691C63.2648 17.6472 63.4992 17.0378 63.7336 16.241C63.968 15.4441 64.1555 14.5535 64.2961 13.5691C64.4836 12.5847 64.6945 11.6003 64.9289 10.616C65.1633 9.58472 65.3977 8.64722 65.632 7.80347C65.9133 6.95972 66.218 6.28003 66.5461 5.7644C66.9211 5.24878 67.343 4.99097 67.8117 4.99097C67.9055 4.99097 68.0461 5.0144 68.2336 5.06128C68.4211 5.06128 68.5383 5.06128 68.5852 5.06128C73.0852 8.90503 77.8664 12.3738 82.9289 15.4675C88.0383 18.5144 93.2883 21.2332 98.6789 23.6238C98.7727 23.6238 98.8898 23.6238 99.0305 23.6238C99.1711 23.6238 99.2883 23.6238 99.382 23.6238C99.6633 23.6238 99.9211 23.6003 100.155 23.5535C100.39 23.5066 100.601 23.2722 100.788 22.8503C100.179 21.491 99.6164 19.9441 99.1008 18.2097C98.632 16.4753 98.2102 14.7175 97.8352 12.9363C97.4602 11.155 97.1555 9.44409 96.9211 7.80347C96.6867 6.11597 96.5695 4.6394 96.5695 3.37378C96.5695 3.18628 96.593 2.92847 96.6398 2.60034C96.7336 2.27222 96.8273 1.94409 96.9211 1.61597C97.0148 1.24097 97.1555 0.936279 97.343 0.701904C97.5305 0.420654 97.7648 0.280029 98.0461 0.280029C98.2336 0.280029 98.5148 0.326904 98.8898 0.420654C99.2648 0.467529 99.6398 0.584717 100.015 0.772217C100.437 0.959717 100.788 1.19409 101.07 1.47534C101.351 1.70972 101.491 1.99097 101.491 2.31909C101.491 2.83472 101.374 3.35034 101.14 3.86597C100.905 4.33472 100.788 4.8269 100.788 5.34253V5.69409C100.788 5.83472 100.812 6.11597 100.859 6.53784C100.952 6.95972 101.023 7.40503 101.07 7.87378C101.163 8.29565 101.234 8.71753 101.28 9.1394C101.327 9.5144 101.374 9.74878 101.421 9.84253V10.5457C101.749 11.6707 102.124 12.9128 102.546 14.2722C102.968 15.6316 103.343 17.0378 103.671 18.491C104.046 19.8972 104.351 21.3503 104.585 22.8503C104.82 24.3035 104.937 25.7097 104.937 27.0691C104.937 27.5378 104.913 27.9832 104.866 28.405C104.82 28.78 104.702 29.1316 104.515 29.4597C104.374 29.7878 104.14 30.0457 103.812 30.2332C103.484 30.3738 103.062 30.4441 102.546 30.4441C101.984 30.4441 101.421 30.3503 100.859 30.1628C100.296 29.9753 99.757 29.7175 99.2414 29.3894C98.7258 29.0144 98.257 28.6394 97.8352 28.2644C97.4133 27.8425 97.0148 27.4441 96.6398 27.0691L69.9211 12.5847H69.6398V12.5144C69.3586 12.5144 69.1008 12.7488 68.8664 13.2175C68.6789 13.6394 68.4914 14.1082 68.3039 14.6238C68.1633 15.1394 68.0461 15.6082 67.9523 16.03C67.8586 16.4519 67.8117 16.6863 67.8117 16.7332C67.8117 16.9207 67.8352 17.2488 67.882 17.7175C67.9289 18.1863 67.9758 18.7722 68.0227 19.4753C68.0695 20.1316 68.1164 20.8347 68.1633 21.5847C68.2102 22.2878 68.257 22.9675 68.3039 23.6238C68.3508 24.28 68.3977 24.866 68.4445 25.3816C68.5383 25.8503 68.5852 26.1785 68.5852 26.366V31.1472C68.4914 31.3816 68.3273 31.5457 68.093 31.6394C67.9055 31.7332 67.6711 31.8035 67.3898 31.8503C67.1555 31.8972 66.8977 31.8972 66.6164 31.8503C66.382 31.8503 66.2414 31.8503 66.1945 31.8503C66.007 31.8503 65.7023 31.8269 65.2805 31.78C64.8586 31.78 64.5773 31.78 64.4367 31.78L63.0305 18.0691ZM115.287 21.9363C115.287 19.3582 115.451 16.6628 115.779 13.8503C116.107 10.991 116.435 8.27222 116.763 5.69409C116.857 4.80347 117.326 4.05347 118.17 3.44409C119.013 2.78784 120.068 2.24878 121.334 1.8269C122.599 1.40503 123.982 1.0769 125.482 0.842529C127.029 0.608154 128.529 0.444092 129.982 0.350342C131.482 0.256592 132.888 0.209717 134.201 0.209717C135.513 0.162842 136.568 0.139404 137.365 0.139404C137.646 0.139404 138.045 0.139404 138.56 0.139404C139.076 0.139404 139.638 0.139404 140.248 0.139404C140.857 0.0925293 141.49 0.0925293 142.146 0.139404C142.802 0.186279 143.365 0.303467 143.834 0.490967C144.349 0.631592 144.771 0.865967 145.099 1.19409C145.427 1.52222 145.591 1.94409 145.591 2.45972C145.591 2.78784 145.498 3.09253 145.31 3.37378C145.17 3.60815 144.795 3.72534 144.185 3.72534C140.248 3.25659 136.31 3.3269 132.373 3.93628C128.435 4.49878 124.615 5.34253 120.912 6.46753C120.912 6.56128 120.912 6.79565 120.912 7.17065V9.1394C120.912 9.5144 120.912 9.74878 120.912 9.84253C120.912 9.93628 120.865 10.1238 120.771 10.405C120.677 10.6394 120.584 10.9207 120.49 11.2488C120.443 11.53 120.373 11.8113 120.279 12.0925C120.185 12.3738 120.138 12.5378 120.138 12.5847C120.138 12.6785 120.232 12.8191 120.42 13.0066C120.607 13.1472 120.771 13.241 120.912 13.2878H121.615C121.849 13.2878 122.388 13.2644 123.232 13.2175C124.076 13.1238 125.06 13.03 126.185 12.9363C127.31 12.7957 128.505 12.6785 129.771 12.5847C131.037 12.491 132.232 12.3972 133.357 12.3035C134.482 12.2097 135.466 12.1394 136.31 12.0925C137.201 12.0457 137.763 11.9988 137.998 11.9519H138.279C138.466 11.9519 138.654 11.9519 138.841 11.9519C139.076 11.905 139.263 11.8816 139.404 11.8816H139.896C140.74 11.8816 141.326 11.9753 141.654 12.1628C142.029 12.3035 142.216 12.8191 142.216 13.7097C142.216 14.4597 141.888 14.9988 141.232 15.3269C140.576 15.6082 139.709 15.8191 138.63 15.9597C137.599 16.0535 136.404 16.1003 135.045 16.1003C133.685 16.0535 132.302 16.03 130.896 16.03C129.49 15.9832 128.084 16.0066 126.677 16.1003C125.318 16.1941 124.099 16.405 123.021 16.7332C121.99 17.0613 121.146 17.5769 120.49 18.28C119.88 18.9832 119.576 19.9441 119.576 21.1628C119.576 22.8035 119.88 24.116 120.49 25.1003C121.099 26.0847 121.92 26.8582 122.951 27.4207C123.982 27.9363 125.154 28.2878 126.466 28.4753C127.779 28.6628 129.115 28.7566 130.474 28.7566C131.88 28.7097 133.287 28.6394 134.693 28.5457C136.099 28.4519 137.412 28.405 138.63 28.405C139.755 28.405 140.763 28.2878 141.654 28.0535C142.591 27.7722 143.552 27.6316 144.537 27.6316C144.818 27.6316 145.029 27.7253 145.17 27.9128C145.357 28.0535 145.474 28.241 145.521 28.4753C145.568 28.7097 145.591 28.9441 145.591 29.1785V29.8113C145.591 30.3738 145.545 30.8425 145.451 31.2175C145.357 31.5925 144.935 31.78 144.185 31.78H124.287C122.74 31.78 121.38 31.5457 120.209 31.0769C119.084 30.5613 118.17 29.8582 117.466 28.9675C116.763 28.0769 116.224 27.0457 115.849 25.8738C115.474 24.655 115.287 23.3425 115.287 21.9363Z" fill="#F1ECFF" fill-opacity="0.95"/>
</svg>
